<?xml version="1.0" standalone="no"?>
<!DOCTYPE svg PUBLIC "-//W3C//DTD SVG 20010904//EN"
 "http://www.w3.org/TR/2001/REC-SVG-20010904/DTD/svg10.dtd">
<svg version="1.0" xmlns="http://www.w3.org/2000/svg"
 width="172.000000pt" height="172.000000pt" viewBox="0 0 172.000000 172.000000"
 preserveAspectRatio="xMidYMid meet">
<metadata>
Created by potrace 1.11, written by Peter Selinger 2001-2013
</metadata>
<g transform="translate(0.000000,172.000000) scale(0.100000,-0.100000)"
fill="#000000" stroke="none">
<path d="M0 860 l0 -860 860 0 860 0 0 860 0 860 -860 0 -860 0 0 -860z m901
432 c72 -34 129 -128 129 -213 0 -21 5 -50 10 -64 15 -39 3 -48 -31 -24 -20
14 -27 25 -20 32 11 14 8 63 -6 97 -6 14 -14 40 -18 58 -3 17 -10 32 -13 32
-4 0 -13 13 -20 29 -20 45 -46 45 -92 0 -42 -41 -50 -46 -50 -28 0 6 -11 25
-25 44 l-26 33 28 10 c42 16 94 13 134 -6z m379 -31 c0 -4 14 -12 32 -17 27
-8 34 -16 45 -59 24 -94 35 -394 18 -505 -3 -19 -5 -42 -6 -50 -2 -38 -32
-175 -46 -208 -41 -97 -143 -223 -218 -267 -107 -62 -262 -74 -379 -28 -86 34
-211 142 -201 174 4 11 2 19 -5 19 -6 0 -8 -4 -5 -10 3 -5 1 -10 -4 -10 -6 0
-12 15 -12 33 -3 50 -5 60 -16 87 -6 14 -9 28 -7 31 2 4 -3 12 -10 18 -19 16
-9 121 13 138 14 11 14 14 1 23 -10 6 -11 10 -3 10 13 0 39 -39 35 -53 -1 -4
2 -17 8 -27 11 -20 68 -29 84 -13 10 11 35 12 41 3 3 -5 12 -7 20 -3 9 3 22 0
30 -7 8 -7 24 -10 35 -7 11 3 23 1 26 -4 3 -5 14 -9 26 -9 11 0 22 -8 25 -19
9 -34 40 -32 84 5 41 34 55 42 45 25 -4 -5 3 -7 14 -4 12 3 18 8 16 11 -3 3 2
11 12 18 12 9 22 9 36 2 12 -7 16 -7 12 0 -3 6 -2 13 3 16 5 4 12 2 15 -3 4
-5 14 -8 24 -6 9 1 22 -2 28 -6 18 -15 44 1 49 30 3 14 17 49 30 76 80 168 79
163 65 208 -6 23 -19 56 -28 72 -18 33 -25 175 -9 175 5 0 7 9 4 20 -3 11 -1
20 4 20 5 0 9 9 9 20 0 11 7 23 15 26 10 4 12 15 8 35 -5 25 -2 29 16 29 11 0
21 -4 21 -9z m-654 -267 c-3 -9 -6 -21 -6 -27 0 -7 -4 -7 -9 2 -10 16 -4 41
11 41 6 0 7 -7 4 -16z m85 -257 c-13 -13 -26 -3 -16 12 3 6 11 8 17 5 6 -4 6
-10 -1 -17z m404 -127 c3 -5 1 -10 -4 -10 -6 0 -11 5 -11 10 0 6 2 10 4 10 3
0 8 -4 11 -10z"/>
<path d="M489 608 c-11 -48 -7 -61 11 -29 7 13 7 22 0 26 -5 3 -10 5 -11 3z"/>
</g>
</svg>
