<svg version="1" xmlns="http://www.w3.org/2000/svg" width="666.667" height="666.667" viewBox="0 0 500.000000 500.000000"><path d="M0 250v250h188v-2.3c0-1.2.5-9.2 1-17.7s1-20 1.1-25.5l.1-10-7.6-15.4c-4.2-8.7-8-17.8-8.6-21-.6-3.1-1.9-9.4-3-14.1-1-4.7-2.7-13-3.6-18.5-.9-5.5-2.7-14.3-3.9-19.5-3-12.3-4.3-21.3-5-34.1-1-17.5-2.1-21.8-10.5-39.4-4.2-8.9-8.8-18.2-10.2-20.6-1.4-2.4-3.9-7.8-5.6-12-2.7-6.8-3.1-9-3.6-23-.4-8.5-1.1-18.1-1.7-21.4-.5-3.3-1.3-10.2-1.7-15.2-1-11.5.2-14.3 5.9-14.3 7.2 0 15.5 6.7 19.9 16.1 3.3 7.1 5.2 15.3 9 38.9 1.5 9.3 5.8 21.6 8.5 24.4.6.6 2.6 3.2 4.5 5.8 3.1 4.4 3.7 4.8 7.4 4.8 9.1-.1 13.7-5.6 16.2-19.5 1.1-6.4 1.3-13.6.7-36.5-.4-15.7-.7-30.8-.7-33.5 0-2.8.3-21.9.7-42.5.7-50.3 2.2-58.2 11-60.4 4.7-1.2 7.1.8 11.5 9.7 4.1 8 5 15.9 4.5 38.2-.4 19.9 1.3 74.4 2.8 89.5 2 21.1 8.8 40.1 13.6 38.3.8-.3 2.4-2.6 3.5-5.2 1.7-4.1 1.9-6 1.3-21.1-.7-17.1-2.2-33.6-5.1-55-1.8-12.9-1.9-15.4-2.8-60.5-.5-26.6.6-43.6 3.5-54.7 1-3.8 5.8-7.8 9.4-7.8 2.9 0 9 7.2 10.2 12.1.6 2.4 2.3 8.4 3.7 13.4 1.4 4.9 3.3 12.4 4.2 16.5 1.6 7.7 4.8 56.7 5.9 89 1.3 40.5 3.4 60.1 6.9 63.9 4.2 4.6 8.6 1.6 10.1-6.9.5-2.5.9-23.6 1-47 .2-54.1 2.3-95.5 5.6-113.6 1.2-6.3 5.9-13 9.7-13.9 3.2-.7 9 1.4 11.4 4.2 4.1 4.6 6 27.1 5.9 70 0 26.2.4 38.2 1.4 44.8.8 4.9 1.7 16.9 2 26.5.8 26 3.6 48.9 7.5 61.2 2.8 9 9.3 22.9 11.6 24.9 1.5 1.3 9.4 3.9 11.8 3.9.3 0 2.5-1.7 4.7-3.7 7.6-6.9 8.2-8.3 16.6-39.7 1.4-5.1 2.6-6.8 9.1-13.2 7.9-7.9 20.7-16.9 28-19.7 2.3-.9 7-1.7 10.3-1.7 5.6 0 6.4.3 9.5 3.4 5.5 5.5 4.7 8.3-5.7 19.1-3.2 3.4-5.6 7.1-7.2 11.6-1.4 3.6-3.4 8.3-4.5 10.5-1.1 2.1-2.9 7.4-4.1 11.7-2.4 8.8-7.5 19.3-16.8 34.9-7.6 12.8-10.5 20.7-12.7 34.7-.9 5.7-2 10.9-2.5 11.5-.5.6-2.1 4.7-3.6 9.1-1.5 4.4-5.5 13.9-9 21-6.5 13.3-14.2 23.7-23.2 31.5-10.9 9.3-13.5 11.4-16 13-4.9 3-12.6 11.4-14.5 15.7-2.4 5.5-3.2 19.1-2.3 40l.7 16.3H500V0H0v250z"/></svg>